<svg width="800" height="800" viewBox="0 0 800 800" xmlns="http://www.w3.org/2000/svg" role="img">
    <defs>
        <linearGradient id="ts-bg" x1="0" y1="0" x2="0.4" y2="1">
            <stop offset="0%" stop-color="#0d1117"/>
            <stop offset="100%" stop-color="#161b22"/>
        </linearGradient>
    </defs>
    <rect width="800" height="800" fill="url(#ts-bg)" rx="12"/>
    <text x="400" y="44" text-anchor="middle" fill="rgba(255,255,255,0.85)" font-size="17" font-weight="bold" letter-spacing="4" font-family="Arial, sans-serif">FRAMEWORKS</text>
    <line x1="310" y1="58" x2="490" y2="58" stroke="rgba(255,255,255,0.12)" stroke-width="1"/>
    <polygon points="400.0,357.5 445.5,436.3 354.5,436.3" fill="none" stroke="rgba(255,255,255,0.07)" stroke-width="1"/>
    <polygon points="400.0,305.0 490.9,462.5 309.1,462.5" fill="none" stroke="rgba(255,255,255,0.07)" stroke-width="1"/>
    <polygon points="400.0,252.5 536.4,488.8 263.6,488.8" fill="none" stroke="rgba(255,255,255,0.07)" stroke-width="1"/>
    <polygon points="400.0,200.0 581.9,515.0 218.1,515.0" fill="none" stroke="rgba(255,255,255,0.15)" stroke-width="1"/>
    <line x1="400" y1="410" x2="400.0" y2="200.0" stroke="rgba(255,255,255,0.1)" stroke-width="1"/>
    <line x1="400" y1="410" x2="581.9" y2="515.0" stroke="rgba(255,255,255,0.1)" stroke-width="1"/>
    <line x1="400" y1="410" x2="218.1" y2="515.0" stroke="rgba(255,255,255,0.1)" stroke-width="1"/>
    
    <polygon points="400.0,200.0 521.2,480.0 339.4,445.0" fill="#7ee787" fill-opacity="0.15" stroke="#7ee787" stroke-width="2" stroke-linejoin="round"/>
    <circle cx="400.0" cy="200.0" r="3.5" fill="#7ee787" stroke="#0d1117" stroke-width="1.5"/><circle cx="521.2" cy="480.0" r="3.5" fill="#7ee787" stroke="#0d1117" stroke-width="1.5"/><circle cx="339.4" cy="445.0" r="3.5" fill="#7ee787" stroke="#0d1117" stroke-width="1.5"/>
    
    <g transform="translate(388.0,156.0) scale(1.0000)"><path d="M21.8537 1.4158a10.4504 10.4504 0 0 1-1.284 2.2471A11.9666 11.9666 0 1 0 3.8518 20.7757l.4445.3951a11.9543 11.9543 0 0 0 19.6316-8.2971c.3457-3.0126-.568-6.8649-2.0743-11.458zM5.5805 20.8745a1.0174 1.0174 0 1 1-.1482-1.4323 1.0396 1.0396 0 0 1 .1482 1.4323zm16.1991-3.5806c-2.9385 3.9263-9.2601 2.5928-13.2852 2.7904 0 0-.7161.0494-1.4323.1481 0 0 .2717-.1234.6174-.2469 2.8398-.9877 4.1732-1.1853 5.9018-2.0743 3.2349-1.6545 6.4698-5.2844 7.1118-9.0379-1.2347 3.6053-4.9881 6.7167-8.3959 7.9761-2.3459.8643-6.5685 1.7039-6.5685 1.7039l-.1729-.0988c-2.8645-1.4076-2.9632-7.6304 2.2718-9.6306 2.2966-.889 4.4696-.395 6.9637-.9877 2.6422-.6174 5.7043-2.5929 6.939-5.1857 1.3828 4.1732 3.062 10.643.0493 14.6434z" fill="#6DB33F"/></g>
    <text x="400.0" y="151.0" text-anchor="middle" dominant-baseline="auto" fill="rgba(255,255,255,0.8)" font-size="10" font-family="Arial, sans-serif">Spring</text>
    <g transform="translate(597.6,519.0) scale(1.0000)"><path d="M14.23 12.004a2.236 2.236 0 0 1-2.235 2.236 2.236 2.236 0 0 1-2.236-2.236 2.236 2.236 0 0 1 2.235-2.236 2.236 2.236 0 0 1 2.236 2.236zm2.648-10.69c-1.346 0-3.107.96-4.888 2.622-1.78-1.653-3.542-2.602-4.887-2.602-.41 0-.783.093-1.106.278-1.375.793-1.683 3.264-.973 6.365C1.98 8.917 0 10.42 0 12.004c0 1.59 1.99 3.097 5.043 4.03-.704 3.113-.39 5.588.988 6.38.32.187.69.275 1.102.275 1.345 0 3.107-.96 4.888-2.624 1.78 1.654 3.542 2.603 4.887 2.603.41 0 .783-.09 1.106-.275 1.374-.792 1.683-3.263.973-6.365C22.02 15.096 24 13.59 24 12.004c0-1.59-1.99-3.097-5.043-4.032.704-3.11.39-5.587-.988-6.38-.318-.184-.688-.277-1.092-.278zm-.005 1.09v.006c.225 0 .406.044.558.127.666.382.955 1.835.73 3.704-.054.46-.142.945-.25 1.44-.96-.236-2.006-.417-3.107-.534-.66-.905-1.345-1.727-2.035-2.447 1.592-1.48 3.087-2.292 4.105-2.295zm-9.77.02c1.012 0 2.514.808 4.11 2.28-.686.72-1.37 1.537-2.02 2.442-1.107.117-2.154.298-3.113.538-.112-.49-.195-.964-.254-1.42-.23-1.868.054-3.32.714-3.707.19-.09.4-.127.563-.132zm4.882 3.05c.455.468.91.992 1.36 1.564-.44-.02-.89-.034-1.345-.034-.46 0-.915.01-1.36.034.44-.572.895-1.096 1.345-1.565zM12 8.1c.74 0 1.477.034 2.202.093.406.582.802 1.203 1.183 1.86.372.64.71 1.29 1.018 1.946-.308.655-.646 1.31-1.013 1.95-.38.66-.773 1.288-1.18 1.87-.728.063-1.466.098-2.21.098-.74 0-1.477-.035-2.202-.093-.406-.582-.802-1.204-1.183-1.86-.372-.64-.71-1.29-1.018-1.946.303-.657.646-1.313 1.013-1.954.38-.66.773-1.286 1.18-1.868.728-.064 1.466-.098 2.21-.098zm-3.635.254c-.24.377-.48.763-.704 1.16-.225.39-.435.782-.635 1.174-.265-.656-.49-1.31-.676-1.947.64-.15 1.315-.283 2.015-.386zm7.26 0c.695.103 1.365.23 2.006.387-.18.632-.405 1.282-.66 1.933-.2-.39-.41-.783-.64-1.174-.225-.392-.465-.774-.705-1.146zm3.063.675c.484.15.944.317 1.375.498 1.732.74 2.852 1.708 2.852 2.476-.005.768-1.125 1.74-2.857 2.475-.42.18-.88.342-1.355.493-.28-.958-.646-1.956-1.1-2.98.45-1.017.81-2.01 1.085-2.964zm-13.395.004c.278.96.645 1.957 1.1 2.98-.45 1.017-.812 2.01-1.086 2.964-.484-.15-.944-.318-1.37-.5-1.732-.737-2.852-1.706-2.852-2.474 0-.768 1.12-1.742 2.852-2.476.42-.18.88-.342 1.356-.494zm11.678 4.28c.265.657.49 1.312.676 1.948-.64.157-1.316.29-2.016.39.24-.375.48-.762.705-1.158.225-.39.435-.788.636-1.18zm-9.945.02c.2.392.41.783.64 1.175.23.39.465.772.705 1.143-.695-.102-1.365-.23-2.006-.386.18-.63.406-1.282.66-1.933zM17.92 16.32c.112.493.2.968.254 1.423.23 1.868-.054 3.32-.714 3.708-.147.09-.338.128-.563.128-1.012 0-2.514-.807-4.11-2.28.686-.72 1.37-1.536 2.02-2.44 1.107-.118 2.154-.3 3.113-.54zm-11.83.01c.96.234 2.006.415 3.107.532.66.905 1.345 1.727 2.035 2.446-1.595 1.483-3.092 2.295-4.11 2.295-.22-.005-.406-.05-.553-.132-.666-.38-.955-1.834-.73-3.703.054-.46.142-.944.25-1.438zm4.56.64c.44.02.89.034 1.345.034.46 0 .915-.01 1.36-.034-.44.572-.895 1.095-1.345 1.565-.455-.47-.91-.993-1.36-1.565z" fill="#61DAFB"/></g>
    <text x="624.3" y="539.5" text-anchor="start" dominant-baseline="hanging" fill="rgba(255,255,255,0.8)" font-size="10" font-family="Arial, sans-serif">React</text>
    <circle cx="190.4" cy="531.0" r="12" fill="#888888" opacity="0.6"/>
    <text x="175.7" y="539.5" text-anchor="end" dominant-baseline="hanging" fill="rgba(255,255,255,0.8)" font-size="10" font-family="Arial, sans-serif">React Native</text>
    
    <circle cx="348.0" cy="764" r="6" fill="#7ee787" fill-opacity="0.7"/>
    <text x="360.0" y="764" dominant-baseline="middle" fill="rgba(255,255,255,0.7)" font-size="11" font-family="Arial, sans-serif">Frameworks</text>
</svg>