<svg width="800" height="800" viewBox="0 0 800 800" xmlns="http://www.w3.org/2000/svg" role="img">
    <defs>
        <linearGradient id="tc-bg" x1="0" y1="0" x2="0.4" y2="1">
            <stop offset="0%" stop-color="#0d1117"/>
            <stop offset="100%" stop-color="#161b22"/>
        </linearGradient>
        <linearGradient id="spider-fill" x1="0" y1="0" x2="1" y2="1">
            <stop offset="0%" stop-color="#58a6ff" stop-opacity="0.3"/>
            <stop offset="100%" stop-color="#bc8cff" stop-opacity="0.3"/>
        </linearGradient>
    </defs>
    <rect width="800" height="800" fill="url(#tc-bg)" rx="12"/>
    <text x="400" y="46" text-anchor="middle" fill="rgba(255,255,255,0.85)" font-size="17" font-weight="bold" letter-spacing="4" font-family="Arial, sans-serif">TECH STACK</text>
    <line x1="310" y1="60" x2="490" y2="60" stroke="rgba(255,255,255,0.12)" stroke-width="1"/>
    
    <polygon points="400.0,375.0 438.9,391.1 455.0,430.0 438.9,468.9 400.0,485.0 361.1,468.9 345.0,430.0 361.1,391.1" fill="none" stroke="rgba(255,255,255,0.08)" stroke-width="1"/>
    <polygon points="400.0,320.0 477.8,352.2 510.0,430.0 477.8,507.8 400.0,540.0 322.2,507.8 290.0,430.0 322.2,352.2" fill="none" stroke="rgba(255,255,255,0.08)" stroke-width="1"/>
    <polygon points="400.0,265.0 516.7,313.3 565.0,430.0 516.7,546.7 400.0,595.0 283.3,546.7 235.0,430.0 283.3,313.3" fill="none" stroke="rgba(255,255,255,0.08)" stroke-width="1"/>
    <polygon points="400.0,210.0 555.6,274.4 620.0,430.0 555.6,585.6 400.0,650.0 244.4,585.6 180.0,430.0 244.4,274.4" fill="none" stroke="rgba(255,255,255,0.18)" stroke-width="1"/>
    <line x1="400" y1="430" x2="400.0" y2="210.0" stroke="rgba(255,255,255,0.12)" stroke-width="1"/>
    <line x1="400" y1="430" x2="555.6" y2="274.4" stroke="rgba(255,255,255,0.12)" stroke-width="1"/>
    <line x1="400" y1="430" x2="620.0" y2="430.0" stroke="rgba(255,255,255,0.12)" stroke-width="1"/>
    <line x1="400" y1="430" x2="555.6" y2="585.6" stroke="rgba(255,255,255,0.12)" stroke-width="1"/>
    <line x1="400" y1="430" x2="400.0" y2="650.0" stroke="rgba(255,255,255,0.12)" stroke-width="1"/>
    <line x1="400" y1="430" x2="244.4" y2="585.6" stroke="rgba(255,255,255,0.12)" stroke-width="1"/>
    <line x1="400" y1="430" x2="180.0" y2="430.0" stroke="rgba(255,255,255,0.12)" stroke-width="1"/>
    <line x1="400" y1="430" x2="244.4" y2="274.4" stroke="rgba(255,255,255,0.12)" stroke-width="1"/>
    <polygon points="400.0,210.0 469.6,360.4 486.8,430.0 428.7,458.7 400.0,470.5 387.7,442.3 388.4,430.0 391.8,421.8" fill="url(#spider-fill)" stroke="#58a6ff" stroke-width="2" stroke-linejoin="round"/>
    <circle cx="400.0" cy="210.0" r="4" fill="#58a6ff" stroke="#0d1117" stroke-width="1.5"/>
    <circle cx="469.6" cy="360.4" r="4" fill="#58a6ff" stroke="#0d1117" stroke-width="1.5"/>
    <circle cx="486.8" cy="430.0" r="4" fill="#58a6ff" stroke="#0d1117" stroke-width="1.5"/>
    <circle cx="428.7" cy="458.7" r="4" fill="#58a6ff" stroke="#0d1117" stroke-width="1.5"/>
    <circle cx="400.0" cy="470.5" r="4" fill="#58a6ff" stroke="#0d1117" stroke-width="1.5"/>
    <circle cx="387.7" cy="442.3" r="4" fill="#58a6ff" stroke="#0d1117" stroke-width="1.5"/>
    <circle cx="388.4" cy="430.0" r="4" fill="#58a6ff" stroke="#0d1117" stroke-width="1.5"/>
    <circle cx="391.8" cy="421.8" r="4" fill="#58a6ff" stroke="#0d1117" stroke-width="1.5"/>
    
    <g transform="translate(386.0,160.0) scale(1.1667)"><path d="M11.915 0 11.7.215C9.515 2.4 7.47 6.39 6.046 10.483c-1.064 1.024-3.633 2.81-3.711 3.551-.093.87 1.746 2.611 1.55 3.235-.198.625-1.304 1.408-1.014 1.939.1.188.823.011 1.277-.491a13.389 13.389 0 0 0-.017 2.14c.076.906.27 1.668.643 2.232.372.563.956.911 1.667.911.397 0 .727-.114 1.024-.264.298-.149.571-.33.91-.5.68-.34 1.634-.666 3.53-.604 1.903.062 2.872.39 3.559.704.687.314 1.15.664 1.925.664.767 0 1.395-.336 1.807-.9.412-.563.631-1.33.72-2.24.06-.623.055-1.32 0-2.066.454.45 1.117.604 1.213.424.29-.53-.816-1.314-1.013-1.937-.198-.624 1.642-2.366 1.549-3.236-.08-.748-2.707-2.568-3.748-3.586C16.428 6.374 14.308 2.394 12.13.215zm.175 6.038a2.95 2.95 0 0 1 2.943 2.942 2.95 2.95 0 0 1-2.943 2.943A2.95 2.95 0 0 1 9.148 8.98a2.95 2.95 0 0 1 2.942-2.942zM8.685 7.983a3.515 3.515 0 0 0-.145.997c0 1.951 1.6 3.55 3.55 3.55 1.95 0 3.55-1.598 3.55-3.55 0-.329-.046-.648-.132-.951.334.095.64.208.915.336a42.699 42.699 0 0 1 2.042 5.829c.678 2.545 1.01 4.92.846 6.607-.082.844-.29 1.51-.606 1.94-.315.431-.713.651-1.315.651-.593 0-.932-.27-1.673-.61-.741-.338-1.825-.694-3.792-.758-1.974-.064-3.073.293-3.821.669-.375.188-.659.373-.911.5s-.466.2-.752.2c-.53 0-.876-.209-1.16-.64-.285-.43-.474-1.101-.545-1.948-.141-1.693.176-4.069.823-6.614a43.155 43.155 0 0 1 1.934-5.783c.348-.167.749-.31 1.192-.425zm-3.382 4.362a.216.216 0 0 1 .13.031c-.166.56-.323 1.116-.463 1.665a33.849 33.849 0 0 0-.547 2.555 3.9 3.9 0 0 0-.2-.39c-.58-1.012-.914-1.642-1.16-2.08.315-.24 1.679-1.755 2.24-1.781zm13.394.01c.562.027 1.926 1.543 2.24 1.783-.246.438-.58 1.068-1.16 2.08a4.428 4.428 0 0 0-.163.309 32.354 32.354 0 0 0-.562-2.49 40.579 40.579 0 0 0-.482-1.652.216.216 0 0 1 .127-.03z" fill="#000000"/></g>
    <text x="400.0" y="154.0" text-anchor="middle" dominant-baseline="auto" fill="rgba(255,255,255,0.85)" font-size="10" font-family="Arial, sans-serif">Java</text>
    <text x="400.0" y="142.0" text-anchor="middle" dominant-baseline="auto" fill="rgba(255,255,255,0.4)" font-size="9" font-family="Arial, sans-serif">38 repos</text>
    <g transform="translate(567.0,235.0) scale(1.1667)"><path d="M0 0h24v24H0V0zm22.034 18.276c-.175-1.095-.888-2.015-3.003-2.873-.736-.345-1.554-.585-1.797-1.14-.091-.33-.105-.51-.046-.705.15-.646.915-.84 1.515-.66.39.12.75.42.976.9 1.034-.676 1.034-.676 1.755-1.125-.27-.42-.404-.601-.586-.78-.63-.705-1.469-1.065-2.834-1.034l-.705.089c-.676.165-1.32.525-1.71 1.005-1.14 1.291-.811 3.541.569 4.471 1.365 1.02 3.361 1.244 3.616 2.205.24 1.17-.87 1.545-1.966 1.41-.811-.18-1.26-.586-1.755-1.336l-1.83 1.051c.21.48.45.689.81 1.109 1.74 1.756 6.09 1.666 6.871-1.004.029-.09.24-.705.074-1.65l.046.067zm-8.983-7.245h-2.248c0 1.938-.009 3.864-.009 5.805 0 1.232.063 2.363-.138 2.711-.33.689-1.18.601-1.566.48-.396-.196-.597-.466-.83-.855-.063-.105-.11-.196-.127-.196l-1.825 1.125c.305.63.75 1.172 1.324 1.517.855.51 2.004.675 3.207.405.783-.226 1.458-.691 1.811-1.411.51-.93.402-2.07.397-3.346.012-2.054 0-4.109 0-6.179l.004-.056z" fill="#F7DF1E"/></g>
    <text x="595.2" y="234.8" text-anchor="start" dominant-baseline="auto" fill="rgba(255,255,255,0.85)" font-size="10" font-family="Arial, sans-serif">JavaScript</text>
    <text x="603.6" y="226.4" text-anchor="start" dominant-baseline="auto" fill="rgba(255,255,255,0.4)" font-size="9" font-family="Arial, sans-serif">17 repos</text>
    <g transform="translate(642.0,416.0) scale(1.1667)"><path d="M14.25.18l.9.2.73.26.59.3.45.32.34.34.25.34.16.33.1.3.04.26.02.2-.01.13V8.5l-.05.63-.13.55-.21.46-.26.38-.3.31-.33.25-.35.19-.35.14-.33.1-.3.07-.26.04-.21.02H8.77l-.69.05-.59.14-.5.22-.41.27-.33.32-.27.35-.2.36-.15.37-.1.35-.07.32-.04.27-.02.21v3.06H3.17l-.21-.03-.28-.07-.32-.12-.35-.18-.36-.26-.36-.36-.35-.46-.32-.59-.28-.73-.21-.88-.14-1.05-.05-1.23.06-1.22.16-1.04.24-.87.32-.71.36-.57.4-.44.42-.33.42-.24.4-.16.36-.1.32-.05.24-.01h.16l.06.01h8.16v-.83H6.18l-.01-2.75-.02-.37.05-.34.11-.31.17-.28.25-.26.31-.23.38-.2.44-.18.51-.15.58-.12.64-.1.71-.06.77-.04.84-.02 1.27.05zm-6.3 1.98l-.23.33-.08.41.08.41.23.34.33.22.41.09.41-.09.33-.22.23-.34.08-.41-.08-.41-.23-.33-.33-.22-.41-.09-.41.09zm13.09 3.95l.28.06.32.12.35.18.36.27.36.35.35.47.32.59.28.73.21.88.14 1.04.05 1.23-.06 1.23-.16 1.04-.24.86-.32.71-.36.57-.4.45-.42.33-.42.24-.4.16-.36.09-.32.05-.24.02-.16-.01h-8.22v.82h5.84l.01 2.76.02.36-.05.34-.11.31-.17.29-.25.25-.31.24-.38.2-.44.17-.51.15-.58.13-.64.09-.71.07-.77.04-.84.01-1.27-.04-1.07-.14-.9-.2-.73-.25-.59-.3-.45-.33-.34-.34-.25-.34-.16-.33-.1-.3-.04-.25-.02-.2.01-.13v-5.34l.05-.64.13-.54.21-.46.26-.38.3-.32.33-.24.35-.2.35-.14.33-.1.3-.06.26-.04.21-.02.13-.01h5.84l.69-.05.59-.14.5-.21.41-.28.33-.32.27-.35.2-.36.15-.36.1-.35.07-.32.04-.28.02-.21V6.07h2.09l.14.01zm-6.47 14.25l-.23.33-.08.41.08.41.23.33.33.23.41.08.41-.08.33-.23.23-.33.08-.41-.08-.41-.23-.33-.33-.23-.41-.08-.41.08z" fill="#3776AB"/></g>
    <text x="676.0" y="430.0" text-anchor="start" dominant-baseline="middle" fill="rgba(255,255,255,0.85)" font-size="10" font-family="Arial, sans-serif">Python</text>
    <text x="688.0" y="430.0" text-anchor="start" dominant-baseline="middle" fill="rgba(255,255,255,0.4)" font-size="9" font-family="Arial, sans-serif">15 repos</text>
    <g transform="translate(567.0,597.0) scale(1.1667)"><path d="M24 24H0V0h24L12 12Z" fill="#7F52FF"/></g>
    <text x="595.2" y="625.2" text-anchor="start" dominant-baseline="hanging" fill="rgba(255,255,255,0.85)" font-size="10" font-family="Arial, sans-serif">Kotlin</text>
    <text x="603.6" y="633.6" text-anchor="start" dominant-baseline="hanging" fill="rgba(255,255,255,0.4)" font-size="9" font-family="Arial, sans-serif">7 repos</text>
    <g transform="translate(386.0,672.0) scale(1.1667)"><path d="M1.125 0C.502 0 0 .502 0 1.125v21.75C0 23.498.502 24 1.125 24h21.75c.623 0 1.125-.502 1.125-1.125V1.125C24 .502 23.498 0 22.875 0zm17.363 9.75c.612 0 1.154.037 1.627.111a6.38 6.38 0 0 1 1.306.34v2.458a3.95 3.95 0 0 0-.643-.361 5.093 5.093 0 0 0-.717-.26 5.453 5.453 0 0 0-1.426-.2c-.3 0-.573.028-.819.086a2.1 2.1 0 0 0-.623.242c-.17.104-.3.229-.393.374a.888.888 0 0 0-.14.49c0 .196.053.373.156.529.104.156.252.304.443.444s.423.276.696.41c.273.135.582.274.926.416.47.197.892.407 1.266.628.374.222.695.473.963.753.268.279.472.598.614.957.142.359.214.776.214 1.253 0 .657-.125 1.21-.373 1.656a3.033 3.033 0 0 1-1.012 1.085 4.38 4.38 0 0 1-1.487.596c-.566.12-1.163.18-1.79.18a9.916 9.916 0 0 1-1.84-.164 5.544 5.544 0 0 1-1.512-.493v-2.63a5.033 5.033 0 0 0 3.237 1.2c.333 0 .624-.03.872-.09.249-.06.456-.144.623-.25.166-.108.29-.234.373-.38a1.023 1.023 0 0 0-.074-1.089 2.12 2.12 0 0 0-.537-.5 5.597 5.597 0 0 0-.807-.444 27.72 27.72 0 0 0-1.007-.436c-.918-.383-1.602-.852-2.053-1.405-.45-.553-.676-1.222-.676-2.005 0-.614.123-1.141.369-1.582.246-.441.58-.804 1.004-1.089a4.494 4.494 0 0 1 1.47-.629 7.536 7.536 0 0 1 1.77-.201zm-15.113.188h9.563v2.166H9.506v9.646H6.789v-9.646H3.375z" fill="#3178C6"/></g>
    <text x="400.0" y="706.0" text-anchor="middle" dominant-baseline="hanging" fill="rgba(255,255,255,0.85)" font-size="10" font-family="Arial, sans-serif">TypeScript</text>
    <text x="400.0" y="718.0" text-anchor="middle" dominant-baseline="hanging" fill="rgba(255,255,255,0.4)" font-size="9" font-family="Arial, sans-serif">7 repos</text>
    <g transform="translate(205.0,597.0) scale(1.1667)"><path d="M0 0v20.16A3.84 3.84 0 0 0 3.84 24h16.32A3.84 3.84 0 0 0 24 20.16V3.84A3.84 3.84 0 0 0 20.16 0Zm14.256 13.08c1.56 0 2.28 1.08 2.304 2.64h-1.608c.024-.288-.048-.6-.144-.84-.096-.192-.288-.264-.552-.264-.456 0-.696.264-.696.84-.024.576.288.888.768 1.08.72.288 1.608.744 1.92 1.296q.432.648.432 1.656c0 1.608-.912 2.592-2.496 2.592-1.656 0-2.4-1.032-2.424-2.688h1.68c0 .792.264 1.176.792 1.176.264 0 .456-.072.552-.24.192-.312.24-1.176-.048-1.512-.312-.408-.912-.6-1.32-.816q-.828-.396-1.224-.936c-.24-.36-.36-.888-.36-1.536 0-1.44.936-2.472 2.424-2.448m5.4 0c1.584 0 2.304 1.08 2.328 2.64h-1.608c0-.288-.048-.6-.168-.84-.096-.192-.264-.264-.528-.264-.48 0-.72.264-.72.84s.288.888.792 1.08c.696.288 1.608.744 1.92 1.296.264.432.408.984.408 1.656.024 1.608-.888 2.592-2.472 2.592-1.68 0-2.424-1.056-2.448-2.688h1.68c0 .744.264 1.176.792 1.176.264 0 .456-.072.552-.24.216-.312.264-1.176-.048-1.512-.288-.408-.888-.6-1.32-.816-.552-.264-.96-.576-1.2-.936s-.36-.888-.36-1.536c-.024-1.44.912-2.472 2.4-2.448m-11.031.018c.711-.006 1.419.198 1.839.63.432.432.672 1.128.648 1.992H9.336c.024-.456-.096-.792-.432-.96-.312-.144-.768-.048-.888.24-.12.264-.192.576-.168.864v3.504c0 .744.264 1.128.768 1.128a.65.65 0 0 0 .552-.264c.168-.24.192-.552.168-.84h1.776c.096 1.632-.984 2.712-2.568 2.688-1.536 0-2.496-.864-2.472-2.472v-4.032c0-.816.24-1.44.696-1.848.432-.408 1.146-.624 1.857-.63" fill="#663399"/></g>
    <text x="204.8" y="625.2" text-anchor="end" dominant-baseline="hanging" fill="rgba(255,255,255,0.85)" font-size="10" font-family="Arial, sans-serif">CSS</text>
    <text x="196.4" y="633.6" text-anchor="end" dominant-baseline="hanging" fill="rgba(255,255,255,0.4)" font-size="9" font-family="Arial, sans-serif">3 repos</text>
    <g transform="translate(130.0,416.0) scale(1.1667)"><path d="M22.394 6c-.167-.29-.398-.543-.652-.69L12.926.22c-.509-.294-1.34-.294-1.848 0L2.26 5.31c-.508.293-.923 1.013-.923 1.6v10.18c0 .294.104.62.271.91.167.29.398.543.652.69l8.816 5.09c.508.293 1.34.293 1.848 0l8.816-5.09c.254-.147.485-.4.652-.69.167-.29.27-.616.27-.91V6.91c.003-.294-.1-.62-.268-.91zM12 19.11c-3.92 0-7.109-3.19-7.109-7.11 0-3.92 3.19-7.11 7.11-7.11a7.133 7.133 0 016.156 3.553l-3.076 1.78a3.567 3.567 0 00-3.08-1.78A3.56 3.56 0 008.444 12 3.56 3.56 0 0012 15.555a3.57 3.57 0 003.08-1.778l3.078 1.78A7.135 7.135 0 0112 19.11zm7.11-6.715h-.79v.79h-.79v-.79h-.79v-.79h.79v-.79h.79v.79h.79zm2.962 0h-.79v.79h-.79v-.79h-.79v-.79h.79v-.79h.79v.79h.79z" fill="#00599C"/></g>
    <text x="124.0" y="430.0" text-anchor="end" dominant-baseline="middle" fill="rgba(255,255,255,0.85)" font-size="10" font-family="Arial, sans-serif">C++</text>
    <text x="112.0" y="430.0" text-anchor="end" dominant-baseline="middle" fill="rgba(255,255,255,0.4)" font-size="9" font-family="Arial, sans-serif">2 repos</text>
    <g transform="translate(205.0,235.0) scale(1.1667)"><path d="M24,1.61H14.06L12,5.16,9.94,1.61H0L12,22.39ZM12,14.08,5.16,2.23H9.59L12,6.41l2.41-4.18h4.43Z" fill="#4FC08D"/></g>
    <text x="204.8" y="234.8" text-anchor="end" dominant-baseline="auto" fill="rgba(255,255,255,0.85)" font-size="10" font-family="Arial, sans-serif">Vue</text>
    <text x="196.4" y="226.4" text-anchor="end" dominant-baseline="auto" fill="rgba(255,255,255,0.4)" font-size="9" font-family="Arial, sans-serif">2 repos</text>
</svg>