<svg width="800" height="800" viewBox="0 0 800 800" xmlns="http://www.w3.org/2000/svg" role="img">
    <defs>
        <linearGradient id="ts-bg" x1="0" y1="0" x2="0.4" y2="1">
            <stop offset="0%" stop-color="#0d1117"/>
            <stop offset="100%" stop-color="#161b22"/>
        </linearGradient>
    </defs>
    <rect width="800" height="800" fill="url(#ts-bg)" rx="12"/>
    <text x="400" y="44" text-anchor="middle" fill="rgba(255,255,255,0.85)" font-size="17" font-weight="bold" letter-spacing="4" font-family="Arial, sans-serif">TECH RADAR</text>
    <line x1="310" y1="58" x2="490" y2="58" stroke="rgba(255,255,255,0.12)" stroke-width="1"/>
    <polygon points="400.0,357.5 433.7,369.8 451.7,400.9 445.5,436.3 418.0,459.3 382.0,459.3 354.5,436.3 348.3,400.9 366.3,369.8" fill="none" stroke="rgba(255,255,255,0.07)" stroke-width="1"/>
    <polygon points="400.0,305.0 467.5,329.6 503.4,391.8 490.9,462.5 435.9,508.7 364.1,508.7 309.1,462.5 296.6,391.8 332.5,329.6" fill="none" stroke="rgba(255,255,255,0.07)" stroke-width="1"/>
    <polygon points="400.0,252.5 501.2,289.3 555.1,382.7 536.4,488.8 453.9,558.0 346.1,558.0 263.6,488.8 244.9,382.7 298.8,289.3" fill="none" stroke="rgba(255,255,255,0.07)" stroke-width="1"/>
    <polygon points="400.0,200.0 535.0,249.1 606.8,373.5 581.9,515.0 471.8,607.3 328.2,607.3 218.1,515.0 193.2,373.5 265.0,249.1" fill="none" stroke="rgba(255,255,255,0.15)" stroke-width="1"/>
    <line x1="400" y1="410" x2="400.0" y2="200.0" stroke="rgba(255,255,255,0.1)" stroke-width="1"/>
    <line x1="400" y1="410" x2="535.0" y2="249.1" stroke="rgba(255,255,255,0.1)" stroke-width="1"/>
    <line x1="400" y1="410" x2="606.8" y2="373.5" stroke="rgba(255,255,255,0.1)" stroke-width="1"/>
    <line x1="400" y1="410" x2="581.9" y2="515.0" stroke="rgba(255,255,255,0.1)" stroke-width="1"/>
    <line x1="400" y1="410" x2="471.8" y2="607.3" stroke="rgba(255,255,255,0.1)" stroke-width="1"/>
    <line x1="400" y1="410" x2="328.2" y2="607.3" stroke="rgba(255,255,255,0.1)" stroke-width="1"/>
    <line x1="400" y1="410" x2="218.1" y2="515.0" stroke="rgba(255,255,255,0.1)" stroke-width="1"/>
    <line x1="400" y1="410" x2="193.2" y2="373.5" stroke="rgba(255,255,255,0.1)" stroke-width="1"/>
    <line x1="400" y1="410" x2="265.0" y2="249.1" stroke="rgba(255,255,255,0.1)" stroke-width="1"/>
    
    <polygon points="400.0,200.0 460.4,338.0 481.6,395.6 433.5,429.3 413.2,446.4 394.3,425.6 400.0,410.0 400.0,410.0 400.0,410.0" fill="#58a6ff" fill-opacity="0.15" stroke="#58a6ff" stroke-width="2" stroke-linejoin="round"/>
    <circle cx="400.0" cy="200.0" r="3.5" fill="#58a6ff" stroke="#0d1117" stroke-width="1.5"/><circle cx="460.4" cy="338.0" r="3.5" fill="#58a6ff" stroke="#0d1117" stroke-width="1.5"/><circle cx="481.6" cy="395.6" r="3.5" fill="#58a6ff" stroke="#0d1117" stroke-width="1.5"/><circle cx="433.5" cy="429.3" r="3.5" fill="#58a6ff" stroke="#0d1117" stroke-width="1.5"/><circle cx="413.2" cy="446.4" r="3.5" fill="#58a6ff" stroke="#0d1117" stroke-width="1.5"/><circle cx="394.3" cy="425.6" r="3.5" fill="#58a6ff" stroke="#0d1117" stroke-width="1.5"/>
    <polygon points="400.0,410.0 400.0,410.0 400.0,410.0 400.0,410.0 400.0,410.0 400.0,410.0 218.1,515.0 262.1,385.7 355.0,356.4" fill="#7ee787" fill-opacity="0.15" stroke="#7ee787" stroke-width="2" stroke-linejoin="round"/>
    <circle cx="218.1" cy="515.0" r="3.5" fill="#7ee787" stroke="#0d1117" stroke-width="1.5"/><circle cx="262.1" cy="385.7" r="3.5" fill="#7ee787" stroke="#0d1117" stroke-width="1.5"/><circle cx="355.0" cy="356.4" r="3.5" fill="#7ee787" stroke="#0d1117" stroke-width="1.5"/>
    
    <g transform="translate(388.0,156.0) scale(1.0000)"><path d="M11.915 0 11.7.215C9.515 2.4 7.47 6.39 6.046 10.483c-1.064 1.024-3.633 2.81-3.711 3.551-.093.87 1.746 2.611 1.55 3.235-.198.625-1.304 1.408-1.014 1.939.1.188.823.011 1.277-.491a13.389 13.389 0 0 0-.017 2.14c.076.906.27 1.668.643 2.232.372.563.956.911 1.667.911.397 0 .727-.114 1.024-.264.298-.149.571-.33.91-.5.68-.34 1.634-.666 3.53-.604 1.903.062 2.872.39 3.559.704.687.314 1.15.664 1.925.664.767 0 1.395-.336 1.807-.9.412-.563.631-1.33.72-2.24.06-.623.055-1.32 0-2.066.454.45 1.117.604 1.213.424.29-.53-.816-1.314-1.013-1.937-.198-.624 1.642-2.366 1.549-3.236-.08-.748-2.707-2.568-3.748-3.586C16.428 6.374 14.308 2.394 12.13.215zm.175 6.038a2.95 2.95 0 0 1 2.943 2.942 2.95 2.95 0 0 1-2.943 2.943A2.95 2.95 0 0 1 9.148 8.98a2.95 2.95 0 0 1 2.942-2.942zM8.685 7.983a3.515 3.515 0 0 0-.145.997c0 1.951 1.6 3.55 3.55 3.55 1.95 0 3.55-1.598 3.55-3.55 0-.329-.046-.648-.132-.951.334.095.64.208.915.336a42.699 42.699 0 0 1 2.042 5.829c.678 2.545 1.01 4.92.846 6.607-.082.844-.29 1.51-.606 1.94-.315.431-.713.651-1.315.651-.593 0-.932-.27-1.673-.61-.741-.338-1.825-.694-3.792-.758-1.974-.064-3.073.293-3.821.669-.375.188-.659.373-.911.5s-.466.2-.752.2c-.53 0-.876-.209-1.16-.64-.285-.43-.474-1.101-.545-1.948-.141-1.693.176-4.069.823-6.614a43.155 43.155 0 0 1 1.934-5.783c.348-.167.749-.31 1.192-.425zm-3.382 4.362a.216.216 0 0 1 .13.031c-.166.56-.323 1.116-.463 1.665a33.849 33.849 0 0 0-.547 2.555 3.9 3.9 0 0 0-.2-.39c-.58-1.012-.914-1.642-1.16-2.08.315-.24 1.679-1.755 2.24-1.781zm13.394.01c.562.027 1.926 1.543 2.24 1.783-.246.438-.58 1.068-1.16 2.08a4.428 4.428 0 0 0-.163.309 32.354 32.354 0 0 0-.562-2.49 40.579 40.579 0 0 0-.482-1.652.216.216 0 0 1 .127-.03z" fill="#000000"/></g>
    <text x="400.0" y="151.0" text-anchor="middle" dominant-baseline="auto" fill="rgba(255,255,255,0.8)" font-size="10" font-family="Arial, sans-serif">Java</text>
    <g transform="translate(543.6,212.6) scale(1.0000)"><path d="M0 0h24v24H0V0zm22.034 18.276c-.175-1.095-.888-2.015-3.003-2.873-.736-.345-1.554-.585-1.797-1.14-.091-.33-.105-.51-.046-.705.15-.646.915-.84 1.515-.66.39.12.75.42.976.9 1.034-.676 1.034-.676 1.755-1.125-.27-.42-.404-.601-.586-.78-.63-.705-1.469-1.065-2.834-1.034l-.705.089c-.676.165-1.32.525-1.71 1.005-1.14 1.291-.811 3.541.569 4.471 1.365 1.02 3.361 1.244 3.616 2.205.24 1.17-.87 1.545-1.966 1.41-.811-.18-1.26-.586-1.755-1.336l-1.83 1.051c.21.48.45.689.81 1.109 1.74 1.756 6.09 1.666 6.871-1.004.029-.09.24-.705.074-1.65l.046.067zm-8.983-7.245h-2.248c0 1.938-.009 3.864-.009 5.805 0 1.232.063 2.363-.138 2.711-.33.689-1.18.601-1.566.48-.396-.196-.597-.466-.83-.855-.063-.105-.11-.196-.127-.196l-1.825 1.125c.305.63.75 1.172 1.324 1.517.855.51 2.004.675 3.207.405.783-.226 1.458-.691 1.811-1.411.51-.93.402-2.07.397-3.346.012-2.054 0-4.109 0-6.179l.004-.056z" fill="#F7DF1E"/></g>
    <text x="566.5" y="211.6" text-anchor="start" dominant-baseline="auto" fill="rgba(255,255,255,0.8)" font-size="10" font-family="Arial, sans-serif">JavaScript</text>
    <g transform="translate(626.3,356.0) scale(1.0000)"><path d="M14.25.18l.9.2.73.26.59.3.45.32.34.34.25.34.16.33.1.3.04.26.02.2-.01.13V8.5l-.05.63-.13.55-.21.46-.26.38-.3.31-.33.25-.35.19-.35.14-.33.1-.3.07-.26.04-.21.02H8.77l-.69.05-.59.14-.5.22-.41.27-.33.32-.27.35-.2.36-.15.37-.1.35-.07.32-.04.27-.02.21v3.06H3.17l-.21-.03-.28-.07-.32-.12-.35-.18-.36-.26-.36-.36-.35-.46-.32-.59-.28-.73-.21-.88-.14-1.05-.05-1.23.06-1.22.16-1.04.24-.87.32-.71.36-.57.4-.44.42-.33.42-.24.4-.16.36-.1.32-.05.24-.01h.16l.06.01h8.16v-.83H6.18l-.01-2.75-.02-.37.05-.34.11-.31.17-.28.25-.26.31-.23.38-.2.44-.18.51-.15.58-.12.64-.1.71-.06.77-.04.84-.02 1.27.05zm-6.3 1.98l-.23.33-.08.41.08.41.23.34.33.22.41.09.41-.09.33-.22.23-.34.08-.41-.08-.41-.23-.33-.33-.22-.41-.09-.41.09zm13.09 3.95l.28.06.32.12.35.18.36.27.36.35.35.47.32.59.28.73.21.88.14 1.04.05 1.23-.06 1.23-.16 1.04-.24.86-.32.71-.36.57-.4.45-.42.33-.42.24-.4.16-.36.09-.32.05-.24.02-.16-.01h-8.22v.82h5.84l.01 2.76.02.36-.05.34-.11.31-.17.29-.25.25-.31.24-.38.2-.44.17-.51.15-.58.13-.64.09-.71.07-.77.04-.84.01-1.27-.04-1.07-.14-.9-.2-.73-.25-.59-.3-.45-.33-.34-.34-.25-.34-.16-.33-.1-.3-.04-.25-.02-.2.01-.13v-5.34l.05-.64.13-.54.21-.46.26-.38.3-.32.33-.24.35-.2.35-.14.33-.1.3-.06.26-.04.21-.02.13-.01h5.84l.69-.05.59-.14.5-.21.41-.28.33-.32.27-.35.2-.36.15-.36.1-.35.07-.32.04-.28.02-.21V6.07h2.09l.14.01zm-6.47 14.25l-.23.33-.08.41.08.41.23.33.33.23.41.08.41-.08.33-.23.23-.33.08-.41-.08-.41-.23-.33-.33-.23-.41-.08-.41.08z" fill="#3776AB"/></g>
    <text x="655.1" y="365.0" text-anchor="start" dominant-baseline="middle" fill="rgba(255,255,255,0.8)" font-size="10" font-family="Arial, sans-serif">Python</text>
    <g transform="translate(597.6,519.0) scale(1.0000)"><path d="M24 24H0V0h24L12 12Z" fill="#7F52FF"/></g>
    <text x="624.3" y="539.5" text-anchor="start" dominant-baseline="hanging" fill="rgba(255,255,255,0.8)" font-size="10" font-family="Arial, sans-serif">Kotlin</text>
    <g transform="translate(470.8,625.4) scale(1.0000)"><path d="M1.125 0C.502 0 0 .502 0 1.125v21.75C0 23.498.502 24 1.125 24h21.75c.623 0 1.125-.502 1.125-1.125V1.125C24 .502 23.498 0 22.875 0zm17.363 9.75c.612 0 1.154.037 1.627.111a6.38 6.38 0 0 1 1.306.34v2.458a3.95 3.95 0 0 0-.643-.361 5.093 5.093 0 0 0-.717-.26 5.453 5.453 0 0 0-1.426-.2c-.3 0-.573.028-.819.086a2.1 2.1 0 0 0-.623.242c-.17.104-.3.229-.393.374a.888.888 0 0 0-.14.49c0 .196.053.373.156.529.104.156.252.304.443.444s.423.276.696.41c.273.135.582.274.926.416.47.197.892.407 1.266.628.374.222.695.473.963.753.268.279.472.598.614.957.142.359.214.776.214 1.253 0 .657-.125 1.21-.373 1.656a3.033 3.033 0 0 1-1.012 1.085 4.38 4.38 0 0 1-1.487.596c-.566.12-1.163.18-1.79.18a9.916 9.916 0 0 1-1.84-.164 5.544 5.544 0 0 1-1.512-.493v-2.63a5.033 5.033 0 0 0 3.237 1.2c.333 0 .624-.03.872-.09.249-.06.456-.144.623-.25.166-.108.29-.234.373-.38a1.023 1.023 0 0 0-.074-1.089 2.12 2.12 0 0 0-.537-.5 5.597 5.597 0 0 0-.807-.444 27.72 27.72 0 0 0-1.007-.436c-.918-.383-1.602-.852-2.053-1.405-.45-.553-.676-1.222-.676-2.005 0-.614.123-1.141.369-1.582.246-.441.58-.804 1.004-1.089a4.494 4.494 0 0 1 1.47-.629 7.536 7.536 0 0 1 1.77-.201zm-15.113.188h9.563v2.166H9.506v9.646H6.789v-9.646H3.375z" fill="#3178C6"/></g>
    <text x="488.6" y="653.4" text-anchor="start" dominant-baseline="hanging" fill="rgba(255,255,255,0.8)" font-size="10" font-family="Arial, sans-serif">TypeScript</text>
    <g transform="translate(305.2,625.4) scale(1.0000)"><path d="M0 0v20.16A3.84 3.84 0 0 0 3.84 24h16.32A3.84 3.84 0 0 0 24 20.16V3.84A3.84 3.84 0 0 0 20.16 0Zm14.256 13.08c1.56 0 2.28 1.08 2.304 2.64h-1.608c.024-.288-.048-.6-.144-.84-.096-.192-.288-.264-.552-.264-.456 0-.696.264-.696.84-.024.576.288.888.768 1.08.72.288 1.608.744 1.92 1.296q.432.648.432 1.656c0 1.608-.912 2.592-2.496 2.592-1.656 0-2.4-1.032-2.424-2.688h1.68c0 .792.264 1.176.792 1.176.264 0 .456-.072.552-.24.192-.312.24-1.176-.048-1.512-.312-.408-.912-.6-1.32-.816q-.828-.396-1.224-.936c-.24-.36-.36-.888-.36-1.536 0-1.44.936-2.472 2.424-2.448m5.4 0c1.584 0 2.304 1.08 2.328 2.64h-1.608c0-.288-.048-.6-.168-.84-.096-.192-.264-.264-.528-.264-.48 0-.72.264-.72.84s.288.888.792 1.08c.696.288 1.608.744 1.92 1.296.264.432.408.984.408 1.656.024 1.608-.888 2.592-2.472 2.592-1.68 0-2.424-1.056-2.448-2.688h1.68c0 .744.264 1.176.792 1.176.264 0 .456-.072.552-.24.216-.312.264-1.176-.048-1.512-.288-.408-.888-.6-1.32-.816-.552-.264-.96-.576-1.2-.936s-.36-.888-.36-1.536c-.024-1.44.912-2.472 2.4-2.448m-11.031.018c.711-.006 1.419.198 1.839.63.432.432.672 1.128.648 1.992H9.336c.024-.456-.096-.792-.432-.96-.312-.144-.768-.048-.888.24-.12.264-.192.576-.168.864v3.504c0 .744.264 1.128.768 1.128a.65.65 0 0 0 .552-.264c.168-.24.192-.552.168-.84h1.776c.096 1.632-.984 2.712-2.568 2.688-1.536 0-2.496-.864-2.472-2.472v-4.032c0-.816.24-1.44.696-1.848.432-.408 1.146-.624 1.857-.63" fill="#663399"/></g>
    <text x="311.4" y="653.4" text-anchor="end" dominant-baseline="hanging" fill="rgba(255,255,255,0.8)" font-size="10" font-family="Arial, sans-serif">CSS</text>
    <g transform="translate(178.4,519.0) scale(1.0000)"><path d="M21.8537 1.4158a10.4504 10.4504 0 0 1-1.284 2.2471A11.9666 11.9666 0 1 0 3.8518 20.7757l.4445.3951a11.9543 11.9543 0 0 0 19.6316-8.2971c.3457-3.0126-.568-6.8649-2.0743-11.458zM5.5805 20.8745a1.0174 1.0174 0 1 1-.1482-1.4323 1.0396 1.0396 0 0 1 .1482 1.4323zm16.1991-3.5806c-2.9385 3.9263-9.2601 2.5928-13.2852 2.7904 0 0-.7161.0494-1.4323.1481 0 0 .2717-.1234.6174-.2469 2.8398-.9877 4.1732-1.1853 5.9018-2.0743 3.2349-1.6545 6.4698-5.2844 7.1118-9.0379-1.2347 3.6053-4.9881 6.7167-8.3959 7.9761-2.3459.8643-6.5685 1.7039-6.5685 1.7039l-.1729-.0988c-2.8645-1.4076-2.9632-7.6304 2.2718-9.6306 2.2966-.889 4.4696-.395 6.9637-.9877 2.6422-.6174 5.7043-2.5929 6.939-5.1857 1.3828 4.1732 3.062 10.643.0493 14.6434z" fill="#6DB33F"/></g>
    <text x="175.7" y="539.5" text-anchor="end" dominant-baseline="hanging" fill="rgba(255,255,255,0.8)" font-size="10" font-family="Arial, sans-serif">Spring</text>
    <g transform="translate(149.7,356.0) scale(1.0000)"><path d="M14.23 12.004a2.236 2.236 0 0 1-2.235 2.236 2.236 2.236 0 0 1-2.236-2.236 2.236 2.236 0 0 1 2.235-2.236 2.236 2.236 0 0 1 2.236 2.236zm2.648-10.69c-1.346 0-3.107.96-4.888 2.622-1.78-1.653-3.542-2.602-4.887-2.602-.41 0-.783.093-1.106.278-1.375.793-1.683 3.264-.973 6.365C1.98 8.917 0 10.42 0 12.004c0 1.59 1.99 3.097 5.043 4.03-.704 3.113-.39 5.588.988 6.38.32.187.69.275 1.102.275 1.345 0 3.107-.96 4.888-2.624 1.78 1.654 3.542 2.603 4.887 2.603.41 0 .783-.09 1.106-.275 1.374-.792 1.683-3.263.973-6.365C22.02 15.096 24 13.59 24 12.004c0-1.59-1.99-3.097-5.043-4.032.704-3.11.39-5.587-.988-6.38-.318-.184-.688-.277-1.092-.278zm-.005 1.09v.006c.225 0 .406.044.558.127.666.382.955 1.835.73 3.704-.054.46-.142.945-.25 1.44-.96-.236-2.006-.417-3.107-.534-.66-.905-1.345-1.727-2.035-2.447 1.592-1.48 3.087-2.292 4.105-2.295zm-9.77.02c1.012 0 2.514.808 4.11 2.28-.686.72-1.37 1.537-2.02 2.442-1.107.117-2.154.298-3.113.538-.112-.49-.195-.964-.254-1.42-.23-1.868.054-3.32.714-3.707.19-.09.4-.127.563-.132zm4.882 3.05c.455.468.91.992 1.36 1.564-.44-.02-.89-.034-1.345-.034-.46 0-.915.01-1.36.034.44-.572.895-1.096 1.345-1.565zM12 8.1c.74 0 1.477.034 2.202.093.406.582.802 1.203 1.183 1.86.372.64.71 1.29 1.018 1.946-.308.655-.646 1.31-1.013 1.95-.38.66-.773 1.288-1.18 1.87-.728.063-1.466.098-2.21.098-.74 0-1.477-.035-2.202-.093-.406-.582-.802-1.204-1.183-1.86-.372-.64-.71-1.29-1.018-1.946.303-.657.646-1.313 1.013-1.954.38-.66.773-1.286 1.18-1.868.728-.064 1.466-.098 2.21-.098zm-3.635.254c-.24.377-.48.763-.704 1.16-.225.39-.435.782-.635 1.174-.265-.656-.49-1.31-.676-1.947.64-.15 1.315-.283 2.015-.386zm7.26 0c.695.103 1.365.23 2.006.387-.18.632-.405 1.282-.66 1.933-.2-.39-.41-.783-.64-1.174-.225-.392-.465-.774-.705-1.146zm3.063.675c.484.15.944.317 1.375.498 1.732.74 2.852 1.708 2.852 2.476-.005.768-1.125 1.74-2.857 2.475-.42.18-.88.342-1.355.493-.28-.958-.646-1.956-1.1-2.98.45-1.017.81-2.01 1.085-2.964zm-13.395.004c.278.96.645 1.957 1.1 2.98-.45 1.017-.812 2.01-1.086 2.964-.484-.15-.944-.318-1.37-.5-1.732-.737-2.852-1.706-2.852-2.474 0-.768 1.12-1.742 2.852-2.476.42-.18.88-.342 1.356-.494zm11.678 4.28c.265.657.49 1.312.676 1.948-.64.157-1.316.29-2.016.39.24-.375.48-.762.705-1.158.225-.39.435-.788.636-1.18zm-9.945.02c.2.392.41.783.64 1.175.23.39.465.772.705 1.143-.695-.102-1.365-.23-2.006-.386.18-.63.406-1.282.66-1.933zM17.92 16.32c.112.493.2.968.254 1.423.23 1.868-.054 3.32-.714 3.708-.147.09-.338.128-.563.128-1.012 0-2.514-.807-4.11-2.28.686-.72 1.37-1.536 2.02-2.44 1.107-.118 2.154-.3 3.113-.54zm-11.83.01c.96.234 2.006.415 3.107.532.66.905 1.345 1.727 2.035 2.446-1.595 1.483-3.092 2.295-4.11 2.295-.22-.005-.406-.05-.553-.132-.666-.38-.955-1.834-.73-3.703.054-.46.142-.944.25-1.438zm4.56.64c.44.02.89.034 1.345.034.46 0 .915-.01 1.36-.034-.44.572-.895 1.095-1.345 1.565-.455-.47-.91-.993-1.36-1.565z" fill="#61DAFB"/></g>
    <text x="144.9" y="365.0" text-anchor="end" dominant-baseline="middle" fill="rgba(255,255,255,0.8)" font-size="10" font-family="Arial, sans-serif">React</text>
    <circle cx="244.4" cy="224.6" r="12" fill="#888888" opacity="0.6"/>
    <text x="233.5" y="211.6" text-anchor="end" dominant-baseline="auto" fill="rgba(255,255,255,0.8)" font-size="10" font-family="Arial, sans-serif">React Native</text>
    
    <circle cx="288.0" cy="764" r="6" fill="#58a6ff" fill-opacity="0.7"/>
    <text x="300.0" y="764" dominant-baseline="middle" fill="rgba(255,255,255,0.7)" font-size="11" font-family="Arial, sans-serif">Languages</text>
    <circle cx="408.0" cy="764" r="6" fill="#7ee787" fill-opacity="0.7"/>
    <text x="420.0" y="764" dominant-baseline="middle" fill="rgba(255,255,255,0.7)" font-size="11" font-family="Arial, sans-serif">Frameworks</text>
</svg>